<mxfile host="app.diagrams.net" agent="Mozilla/5.0 (Macintosh; Intel Mac OS X 10_15_7) AppleWebKit/537.36 (KHTML, like Gecko) Chrome/138.0.0.0 Safari/537.36" version="28.0.7">
  <diagram name="ページ1" id="7fDiAft42PyehZ9SyB2I">
    <mxGraphModel dx="1543" dy="3281" grid="1" gridSize="10" guides="1" tooltips="1" connect="1" arrows="1" fold="1" page="1" pageScale="1" pageWidth="827" pageHeight="1169" math="0" shadow="0">
      <root>
        <mxCell id="0" />
        <mxCell id="1" parent="0" />
        <mxCell id="NcS81kNCXX5SQqSHhs6a-1" value="audio compare" style="swimlane;childLayout=stackLayout;resizeParent=1;resizeParentMax=0;startSize=20;html=1;rounded=1;" vertex="1" parent="1">
          <mxGeometry x="80" y="-2260" width="500" height="1770" as="geometry" />
        </mxCell>
        <mxCell id="NcS81kNCXX5SQqSHhs6a-2" value="User" style="swimlane;startSize=20;html=1;rounded=1;" vertex="1" parent="NcS81kNCXX5SQqSHhs6a-1">
          <mxGeometry y="20" width="170" height="1750" as="geometry" />
        </mxCell>
        <mxCell id="NcS81kNCXX5SQqSHhs6a-7" value="聴き比べボタンをタップ" style="ellipse;whiteSpace=wrap;html=1;rounded=1;" vertex="1" parent="NcS81kNCXX5SQqSHhs6a-2">
          <mxGeometry x="49.999999999999545" y="40" width="70" height="70" as="geometry" />
        </mxCell>
        <mxCell id="NcS81kNCXX5SQqSHhs6a-9" value="録音開始ボタンをタップ" style="whiteSpace=wrap;html=1;rounded=1;" vertex="1" parent="NcS81kNCXX5SQqSHhs6a-2">
          <mxGeometry x="24.999999999999545" y="600" width="120" height="60" as="geometry" />
        </mxCell>
        <mxCell id="NcS81kNCXX5SQqSHhs6a-17" style="edgeStyle=orthogonalEdgeStyle;rounded=1;orthogonalLoop=1;jettySize=auto;html=1;exitX=0.25;exitY=0;exitDx=0;exitDy=0;entryX=0.25;entryY=1;entryDx=0;entryDy=0;" edge="1" parent="NcS81kNCXX5SQqSHhs6a-2" source="NcS81kNCXX5SQqSHhs6a-15" target="NcS81kNCXX5SQqSHhs6a-9">
          <mxGeometry relative="1" as="geometry" />
        </mxCell>
        <mxCell id="NcS81kNCXX5SQqSHhs6a-15" value="マイク入力をONに" style="whiteSpace=wrap;html=1;rounded=1;" vertex="1" parent="NcS81kNCXX5SQqSHhs6a-2">
          <mxGeometry x="24.999999999999545" y="700" width="120" height="60" as="geometry" />
        </mxCell>
        <mxCell id="NcS81kNCXX5SQqSHhs6a-24" value="録音終了ボタンをタップ" style="whiteSpace=wrap;html=1;rounded=1;" vertex="1" parent="NcS81kNCXX5SQqSHhs6a-2">
          <mxGeometry x="25" y="820" width="120" height="60" as="geometry" />
        </mxCell>
        <mxCell id="NcS81kNCXX5SQqSHhs6a-49" value="No" style="edgeStyle=orthogonalEdgeStyle;rounded=1;orthogonalLoop=1;jettySize=auto;html=1;exitX=0.5;exitY=1;exitDx=0;exitDy=0;" edge="1" parent="NcS81kNCXX5SQqSHhs6a-2" source="NcS81kNCXX5SQqSHhs6a-41" target="NcS81kNCXX5SQqSHhs6a-48">
          <mxGeometry relative="1" as="geometry" />
        </mxCell>
        <mxCell id="NcS81kNCXX5SQqSHhs6a-95" value="Yes" style="edgeStyle=orthogonalEdgeStyle;rounded=1;orthogonalLoop=1;jettySize=auto;html=1;exitX=0;exitY=0.5;exitDx=0;exitDy=0;entryX=0.5;entryY=0;entryDx=0;entryDy=0;" edge="1" parent="NcS81kNCXX5SQqSHhs6a-2" source="NcS81kNCXX5SQqSHhs6a-41" target="NcS81kNCXX5SQqSHhs6a-41">
          <mxGeometry relative="1" as="geometry">
            <mxPoint x="80.00000000000023" y="1070" as="targetPoint" />
            <Array as="points">
              <mxPoint x="40" y="1120" />
              <mxPoint x="40" y="1060" />
              <mxPoint x="100" y="1060" />
            </Array>
          </mxGeometry>
        </mxCell>
        <mxCell id="NcS81kNCXX5SQqSHhs6a-41" value="録音を再生する？" style="rhombus;whiteSpace=wrap;html=1;rounded=1;" vertex="1" parent="NcS81kNCXX5SQqSHhs6a-2">
          <mxGeometry x="45" y="1080" width="80" height="80" as="geometry" />
        </mxCell>
        <mxCell id="NcS81kNCXX5SQqSHhs6a-54" value="No" style="edgeStyle=orthogonalEdgeStyle;rounded=1;orthogonalLoop=1;jettySize=auto;html=1;exitX=0.5;exitY=1;exitDx=0;exitDy=0;" edge="1" parent="NcS81kNCXX5SQqSHhs6a-2" source="NcS81kNCXX5SQqSHhs6a-48" target="NcS81kNCXX5SQqSHhs6a-56">
          <mxGeometry relative="1" as="geometry">
            <mxPoint x="85" y="1050" as="targetPoint" />
          </mxGeometry>
        </mxCell>
        <mxCell id="NcS81kNCXX5SQqSHhs6a-97" value="Yes" style="edgeStyle=orthogonalEdgeStyle;rounded=1;orthogonalLoop=1;jettySize=auto;html=1;exitX=0;exitY=0.5;exitDx=0;exitDy=0;entryX=0;entryY=0.5;entryDx=0;entryDy=0;" edge="1" parent="NcS81kNCXX5SQqSHhs6a-2" source="NcS81kNCXX5SQqSHhs6a-48" target="NcS81kNCXX5SQqSHhs6a-9">
          <mxGeometry relative="1" as="geometry">
            <Array as="points">
              <mxPoint x="10" y="1240" />
              <mxPoint x="10" y="630" />
            </Array>
          </mxGeometry>
        </mxCell>
        <mxCell id="NcS81kNCXX5SQqSHhs6a-48" value="音声を録り直す？" style="rhombus;whiteSpace=wrap;html=1;rounded=1;" vertex="1" parent="NcS81kNCXX5SQqSHhs6a-2">
          <mxGeometry x="45" y="1200" width="80" height="80" as="geometry" />
        </mxCell>
        <mxCell id="NcS81kNCXX5SQqSHhs6a-56" value="聴き比べボタンをタップ" style="whiteSpace=wrap;html=1;rounded=1;" vertex="1" parent="NcS81kNCXX5SQqSHhs6a-2">
          <mxGeometry x="25" y="1370" width="120" height="60" as="geometry" />
        </mxCell>
        <mxCell id="NcS81kNCXX5SQqSHhs6a-62" value="お手本音声再生ボタンを押す" style="whiteSpace=wrap;html=1;rounded=1;" vertex="1" parent="NcS81kNCXX5SQqSHhs6a-2">
          <mxGeometry x="25" y="150" width="120" height="60" as="geometry" />
        </mxCell>
        <mxCell id="NcS81kNCXX5SQqSHhs6a-86" style="edgeStyle=orthogonalEdgeStyle;rounded=1;orthogonalLoop=1;jettySize=auto;html=1;exitX=0.5;exitY=1;exitDx=0;exitDy=0;" edge="1" parent="NcS81kNCXX5SQqSHhs6a-2" source="NcS81kNCXX5SQqSHhs6a-81" target="NcS81kNCXX5SQqSHhs6a-9">
          <mxGeometry relative="1" as="geometry" />
        </mxCell>
        <mxCell id="NcS81kNCXX5SQqSHhs6a-81" value="音声を視聴" style="whiteSpace=wrap;html=1;rounded=1;" vertex="1" parent="NcS81kNCXX5SQqSHhs6a-2">
          <mxGeometry x="25" y="510" width="120" height="60" as="geometry" />
        </mxCell>
        <mxCell id="NcS81kNCXX5SQqSHhs6a-107" style="edgeStyle=orthogonalEdgeStyle;rounded=1;orthogonalLoop=1;jettySize=auto;html=1;exitX=0.5;exitY=1;exitDx=0;exitDy=0;" edge="1" parent="NcS81kNCXX5SQqSHhs6a-2" source="NcS81kNCXX5SQqSHhs6a-101" target="NcS81kNCXX5SQqSHhs6a-106">
          <mxGeometry relative="1" as="geometry" />
        </mxCell>
        <mxCell id="NcS81kNCXX5SQqSHhs6a-101" value="波形を確認" style="whiteSpace=wrap;html=1;rounded=1;" vertex="1" parent="NcS81kNCXX5SQqSHhs6a-2">
          <mxGeometry x="25" y="1480" width="120" height="60" as="geometry" />
        </mxCell>
        <mxCell id="NcS81kNCXX5SQqSHhs6a-106" value="ページを閉じる" style="ellipse;whiteSpace=wrap;html=1;rounded=1;" vertex="1" parent="NcS81kNCXX5SQqSHhs6a-2">
          <mxGeometry x="50" y="1600" width="70" height="70" as="geometry" />
        </mxCell>
        <mxCell id="NcS81kNCXX5SQqSHhs6a-3" value="App" style="swimlane;startSize=20;html=1;rounded=1;" vertex="1" parent="NcS81kNCXX5SQqSHhs6a-1">
          <mxGeometry x="170" y="20" width="180" height="1750" as="geometry" />
        </mxCell>
        <mxCell id="NcS81kNCXX5SQqSHhs6a-8" value="聴き比べ画面を表示" style="whiteSpace=wrap;html=1;rounded=1;" vertex="1" parent="NcS81kNCXX5SQqSHhs6a-3">
          <mxGeometry x="29.999999999999545" y="45" width="120" height="60" as="geometry" />
        </mxCell>
        <mxCell id="NcS81kNCXX5SQqSHhs6a-20" value="No" style="edgeStyle=orthogonalEdgeStyle;rounded=1;orthogonalLoop=1;jettySize=auto;html=1;exitX=0.5;exitY=1;exitDx=0;exitDy=0;" edge="1" parent="NcS81kNCXX5SQqSHhs6a-3" source="NcS81kNCXX5SQqSHhs6a-12" target="NcS81kNCXX5SQqSHhs6a-19">
          <mxGeometry relative="1" as="geometry" />
        </mxCell>
        <mxCell id="NcS81kNCXX5SQqSHhs6a-90" value="Yes" style="edgeStyle=orthogonalEdgeStyle;rounded=1;orthogonalLoop=1;jettySize=auto;html=1;exitX=1;exitY=0.5;exitDx=0;exitDy=0;entryX=1;entryY=0.5;entryDx=0;entryDy=0;" edge="1" parent="NcS81kNCXX5SQqSHhs6a-3" source="NcS81kNCXX5SQqSHhs6a-12" target="NcS81kNCXX5SQqSHhs6a-22">
          <mxGeometry relative="1" as="geometry" />
        </mxCell>
        <mxCell id="NcS81kNCXX5SQqSHhs6a-12" value="マイク入力がONか？" style="rhombus;whiteSpace=wrap;html=1;rounded=1;" vertex="1" parent="NcS81kNCXX5SQqSHhs6a-3">
          <mxGeometry x="49.999999999999545" y="590" width="80" height="80" as="geometry" />
        </mxCell>
        <mxCell id="NcS81kNCXX5SQqSHhs6a-19" value="「マイク入力をONにしてください」というメッセージを表示" style="whiteSpace=wrap;html=1;rounded=1;" vertex="1" parent="NcS81kNCXX5SQqSHhs6a-3">
          <mxGeometry x="29.999999999999545" y="700" width="120" height="60" as="geometry" />
        </mxCell>
        <mxCell id="NcS81kNCXX5SQqSHhs6a-22" value="録音を開始" style="whiteSpace=wrap;html=1;rounded=1;" vertex="1" parent="NcS81kNCXX5SQqSHhs6a-3">
          <mxGeometry x="30" y="820" width="120" height="60" as="geometry" />
        </mxCell>
        <mxCell id="NcS81kNCXX5SQqSHhs6a-31" style="edgeStyle=orthogonalEdgeStyle;rounded=1;orthogonalLoop=1;jettySize=auto;html=1;exitX=0.5;exitY=1;exitDx=0;exitDy=0;" edge="1" parent="NcS81kNCXX5SQqSHhs6a-3" source="NcS81kNCXX5SQqSHhs6a-27" target="NcS81kNCXX5SQqSHhs6a-30">
          <mxGeometry relative="1" as="geometry" />
        </mxCell>
        <mxCell id="NcS81kNCXX5SQqSHhs6a-27" value="録音データを解析" style="whiteSpace=wrap;html=1;rounded=1;" vertex="1" parent="NcS81kNCXX5SQqSHhs6a-3">
          <mxGeometry x="30" y="910" width="120" height="60" as="geometry" />
        </mxCell>
        <mxCell id="NcS81kNCXX5SQqSHhs6a-35" value="No" style="edgeStyle=orthogonalEdgeStyle;rounded=1;orthogonalLoop=1;jettySize=auto;html=1;" edge="1" parent="NcS81kNCXX5SQqSHhs6a-3" source="NcS81kNCXX5SQqSHhs6a-30" target="NcS81kNCXX5SQqSHhs6a-34">
          <mxGeometry relative="1" as="geometry" />
        </mxCell>
        <mxCell id="NcS81kNCXX5SQqSHhs6a-40" value="Yes" style="edgeStyle=orthogonalEdgeStyle;rounded=1;orthogonalLoop=1;jettySize=auto;html=1;exitX=1;exitY=0.5;exitDx=0;exitDy=0;entryX=1;entryY=0.5;entryDx=0;entryDy=0;" edge="1" parent="NcS81kNCXX5SQqSHhs6a-3" source="NcS81kNCXX5SQqSHhs6a-30" target="NcS81kNCXX5SQqSHhs6a-58">
          <mxGeometry relative="1" as="geometry" />
        </mxCell>
        <mxCell id="NcS81kNCXX5SQqSHhs6a-30" value="録音に成功した" style="rhombus;whiteSpace=wrap;html=1;rounded=1;" vertex="1" parent="NcS81kNCXX5SQqSHhs6a-3">
          <mxGeometry x="50" y="1000" width="80" height="80" as="geometry" />
        </mxCell>
        <mxCell id="NcS81kNCXX5SQqSHhs6a-34" value="エラーメッセージを表示し再度録音を促す" style="whiteSpace=wrap;html=1;rounded=1;" vertex="1" parent="NcS81kNCXX5SQqSHhs6a-3">
          <mxGeometry x="30" y="1120" width="120" height="60" as="geometry" />
        </mxCell>
        <mxCell id="NcS81kNCXX5SQqSHhs6a-39" value="再生ボタン，録音ボタン，聴き比べボタンを表示" style="whiteSpace=wrap;html=1;rounded=1;" vertex="1" parent="NcS81kNCXX5SQqSHhs6a-3">
          <mxGeometry x="30" y="1290" width="120" height="60" as="geometry" />
        </mxCell>
        <mxCell id="NcS81kNCXX5SQqSHhs6a-59" style="edgeStyle=orthogonalEdgeStyle;rounded=1;orthogonalLoop=1;jettySize=auto;html=1;exitX=0.5;exitY=1;exitDx=0;exitDy=0;" edge="1" parent="NcS81kNCXX5SQqSHhs6a-3" source="NcS81kNCXX5SQqSHhs6a-58" target="NcS81kNCXX5SQqSHhs6a-39">
          <mxGeometry relative="1" as="geometry" />
        </mxCell>
        <mxCell id="NcS81kNCXX5SQqSHhs6a-58" value="録音データをキャッシュ" style="whiteSpace=wrap;html=1;rounded=1;" vertex="1" parent="NcS81kNCXX5SQqSHhs6a-3">
          <mxGeometry x="30" y="1210" width="120" height="60" as="geometry" />
        </mxCell>
        <mxCell id="NcS81kNCXX5SQqSHhs6a-99" style="edgeStyle=orthogonalEdgeStyle;rounded=1;orthogonalLoop=1;jettySize=auto;html=1;exitX=0.5;exitY=1;exitDx=0;exitDy=0;" edge="1" parent="NcS81kNCXX5SQqSHhs6a-3" source="NcS81kNCXX5SQqSHhs6a-60" target="NcS81kNCXX5SQqSHhs6a-98">
          <mxGeometry relative="1" as="geometry" />
        </mxCell>
        <mxCell id="NcS81kNCXX5SQqSHhs6a-60" value="キャッシュされた音声を波形データに変換" style="whiteSpace=wrap;html=1;rounded=1;" vertex="1" parent="NcS81kNCXX5SQqSHhs6a-3">
          <mxGeometry x="30" y="1370" width="120" height="60" as="geometry" />
        </mxCell>
        <mxCell id="NcS81kNCXX5SQqSHhs6a-65" value="お手本音声をDBに要求" style="whiteSpace=wrap;html=1;rounded=1;" vertex="1" parent="NcS81kNCXX5SQqSHhs6a-3">
          <mxGeometry x="30" y="150" width="120" height="60" as="geometry" />
        </mxCell>
        <mxCell id="NcS81kNCXX5SQqSHhs6a-72" value="No" style="edgeStyle=orthogonalEdgeStyle;rounded=1;orthogonalLoop=1;jettySize=auto;html=1;exitX=0.5;exitY=1;exitDx=0;exitDy=0;" edge="1" parent="NcS81kNCXX5SQqSHhs6a-3" source="NcS81kNCXX5SQqSHhs6a-69" target="NcS81kNCXX5SQqSHhs6a-71">
          <mxGeometry relative="1" as="geometry" />
        </mxCell>
        <mxCell id="NcS81kNCXX5SQqSHhs6a-79" value="Yes" style="edgeStyle=orthogonalEdgeStyle;rounded=1;orthogonalLoop=1;jettySize=auto;html=1;exitX=0;exitY=0.5;exitDx=0;exitDy=0;entryX=0;entryY=0.5;entryDx=0;entryDy=0;" edge="1" parent="NcS81kNCXX5SQqSHhs6a-3" source="NcS81kNCXX5SQqSHhs6a-69" target="NcS81kNCXX5SQqSHhs6a-75">
          <mxGeometry relative="1" as="geometry">
            <Array as="points">
              <mxPoint x="10" y="260" />
              <mxPoint x="10" y="457" />
            </Array>
          </mxGeometry>
        </mxCell>
        <mxCell id="NcS81kNCXX5SQqSHhs6a-69" value="音声データを正しく取得できたか？" style="rhombus;whiteSpace=wrap;html=1;rounded=1;" vertex="1" parent="NcS81kNCXX5SQqSHhs6a-3">
          <mxGeometry x="50" y="220" width="80" height="80" as="geometry" />
        </mxCell>
        <mxCell id="NcS81kNCXX5SQqSHhs6a-73" style="edgeStyle=orthogonalEdgeStyle;rounded=1;orthogonalLoop=1;jettySize=auto;html=1;exitX=1;exitY=0.5;exitDx=0;exitDy=0;entryX=1;entryY=0.5;entryDx=0;entryDy=0;" edge="1" parent="NcS81kNCXX5SQqSHhs6a-3" source="NcS81kNCXX5SQqSHhs6a-71" target="NcS81kNCXX5SQqSHhs6a-8">
          <mxGeometry relative="1" as="geometry" />
        </mxCell>
        <mxCell id="NcS81kNCXX5SQqSHhs6a-71" value="エラーメッセージを表示" style="whiteSpace=wrap;html=1;rounded=1;" vertex="1" parent="NcS81kNCXX5SQqSHhs6a-3">
          <mxGeometry x="30" y="340" width="120" height="60" as="geometry" />
        </mxCell>
        <mxCell id="NcS81kNCXX5SQqSHhs6a-80" style="edgeStyle=orthogonalEdgeStyle;rounded=1;orthogonalLoop=1;jettySize=auto;html=1;exitX=0.5;exitY=1;exitDx=0;exitDy=0;" edge="1" parent="NcS81kNCXX5SQqSHhs6a-3" source="NcS81kNCXX5SQqSHhs6a-75" target="NcS81kNCXX5SQqSHhs6a-76">
          <mxGeometry relative="1" as="geometry" />
        </mxCell>
        <mxCell id="NcS81kNCXX5SQqSHhs6a-75" value="音声データをキャッシュに保存" style="whiteSpace=wrap;html=1;rounded=1;" vertex="1" parent="NcS81kNCXX5SQqSHhs6a-3">
          <mxGeometry x="30" y="427" width="120" height="60" as="geometry" />
        </mxCell>
        <mxCell id="NcS81kNCXX5SQqSHhs6a-76" value="音声を再生" style="whiteSpace=wrap;html=1;rounded=1;" vertex="1" parent="NcS81kNCXX5SQqSHhs6a-3">
          <mxGeometry x="30" y="510" width="120" height="60" as="geometry" />
        </mxCell>
        <mxCell id="NcS81kNCXX5SQqSHhs6a-77" style="edgeStyle=orthogonalEdgeStyle;rounded=1;orthogonalLoop=1;jettySize=auto;html=1;exitX=0.5;exitY=1;exitDx=0;exitDy=0;" edge="1" parent="NcS81kNCXX5SQqSHhs6a-3" source="NcS81kNCXX5SQqSHhs6a-71" target="NcS81kNCXX5SQqSHhs6a-71">
          <mxGeometry relative="1" as="geometry" />
        </mxCell>
        <mxCell id="NcS81kNCXX5SQqSHhs6a-98" value="波形を表示" style="whiteSpace=wrap;html=1;rounded=1;" vertex="1" parent="NcS81kNCXX5SQqSHhs6a-3">
          <mxGeometry x="30" y="1480" width="120" height="60" as="geometry" />
        </mxCell>
        <mxCell id="NcS81kNCXX5SQqSHhs6a-28" style="edgeStyle=orthogonalEdgeStyle;rounded=1;orthogonalLoop=1;jettySize=auto;html=1;exitX=0.5;exitY=1;exitDx=0;exitDy=0;entryX=0;entryY=0.5;entryDx=0;entryDy=0;" edge="1" parent="NcS81kNCXX5SQqSHhs6a-1" source="NcS81kNCXX5SQqSHhs6a-24" target="NcS81kNCXX5SQqSHhs6a-27">
          <mxGeometry relative="1" as="geometry" />
        </mxCell>
        <mxCell id="NcS81kNCXX5SQqSHhs6a-52" style="edgeStyle=orthogonalEdgeStyle;rounded=1;orthogonalLoop=1;jettySize=auto;html=1;exitX=1;exitY=0.5;exitDx=0;exitDy=0;" edge="1" parent="NcS81kNCXX5SQqSHhs6a-1" source="NcS81kNCXX5SQqSHhs6a-7" target="NcS81kNCXX5SQqSHhs6a-8">
          <mxGeometry relative="1" as="geometry" />
        </mxCell>
        <mxCell id="NcS81kNCXX5SQqSHhs6a-61" style="edgeStyle=orthogonalEdgeStyle;rounded=1;orthogonalLoop=1;jettySize=auto;html=1;exitX=1;exitY=0.5;exitDx=0;exitDy=0;" edge="1" parent="NcS81kNCXX5SQqSHhs6a-1" source="NcS81kNCXX5SQqSHhs6a-56" target="NcS81kNCXX5SQqSHhs6a-60">
          <mxGeometry relative="1" as="geometry" />
        </mxCell>
        <mxCell id="NcS81kNCXX5SQqSHhs6a-64" style="edgeStyle=orthogonalEdgeStyle;rounded=1;orthogonalLoop=1;jettySize=auto;html=1;exitX=0.5;exitY=1;exitDx=0;exitDy=0;" edge="1" parent="NcS81kNCXX5SQqSHhs6a-1" source="NcS81kNCXX5SQqSHhs6a-8" target="NcS81kNCXX5SQqSHhs6a-62">
          <mxGeometry relative="1" as="geometry" />
        </mxCell>
        <mxCell id="NcS81kNCXX5SQqSHhs6a-66" style="edgeStyle=orthogonalEdgeStyle;rounded=1;orthogonalLoop=1;jettySize=auto;html=1;exitX=1;exitY=0.5;exitDx=0;exitDy=0;" edge="1" parent="NcS81kNCXX5SQqSHhs6a-1" source="NcS81kNCXX5SQqSHhs6a-62" target="NcS81kNCXX5SQqSHhs6a-65">
          <mxGeometry relative="1" as="geometry" />
        </mxCell>
        <mxCell id="NcS81kNCXX5SQqSHhs6a-4" value="DB" style="swimlane;startSize=20;html=1;rounded=1;" vertex="1" parent="NcS81kNCXX5SQqSHhs6a-1">
          <mxGeometry x="350" y="20" width="150" height="1750" as="geometry" />
        </mxCell>
        <mxCell id="NcS81kNCXX5SQqSHhs6a-67" value="音声データの検索結果を返す" style="whiteSpace=wrap;html=1;rounded=1;" vertex="1" parent="NcS81kNCXX5SQqSHhs6a-4">
          <mxGeometry x="15" y="150" width="120" height="60" as="geometry" />
        </mxCell>
        <mxCell id="NcS81kNCXX5SQqSHhs6a-68" style="edgeStyle=orthogonalEdgeStyle;rounded=1;orthogonalLoop=1;jettySize=auto;html=1;exitX=1;exitY=0.5;exitDx=0;exitDy=0;" edge="1" parent="NcS81kNCXX5SQqSHhs6a-1" source="NcS81kNCXX5SQqSHhs6a-65" target="NcS81kNCXX5SQqSHhs6a-67">
          <mxGeometry relative="1" as="geometry" />
        </mxCell>
        <mxCell id="NcS81kNCXX5SQqSHhs6a-70" style="edgeStyle=orthogonalEdgeStyle;rounded=1;orthogonalLoop=1;jettySize=auto;html=1;exitX=0.5;exitY=1;exitDx=0;exitDy=0;entryX=1;entryY=0.5;entryDx=0;entryDy=0;" edge="1" parent="NcS81kNCXX5SQqSHhs6a-1" source="NcS81kNCXX5SQqSHhs6a-67" target="NcS81kNCXX5SQqSHhs6a-69">
          <mxGeometry relative="1" as="geometry" />
        </mxCell>
        <mxCell id="NcS81kNCXX5SQqSHhs6a-85" style="edgeStyle=orthogonalEdgeStyle;rounded=1;orthogonalLoop=1;jettySize=auto;html=1;exitX=0;exitY=0.5;exitDx=0;exitDy=0;" edge="1" parent="NcS81kNCXX5SQqSHhs6a-1" source="NcS81kNCXX5SQqSHhs6a-76" target="NcS81kNCXX5SQqSHhs6a-81">
          <mxGeometry relative="1" as="geometry" />
        </mxCell>
        <mxCell id="NcS81kNCXX5SQqSHhs6a-88" style="edgeStyle=orthogonalEdgeStyle;rounded=1;orthogonalLoop=1;jettySize=auto;html=1;exitX=1;exitY=0.5;exitDx=0;exitDy=0;" edge="1" parent="NcS81kNCXX5SQqSHhs6a-1" source="NcS81kNCXX5SQqSHhs6a-9" target="NcS81kNCXX5SQqSHhs6a-12">
          <mxGeometry relative="1" as="geometry" />
        </mxCell>
        <mxCell id="NcS81kNCXX5SQqSHhs6a-89" style="edgeStyle=orthogonalEdgeStyle;rounded=1;orthogonalLoop=1;jettySize=auto;html=1;exitX=0;exitY=0.5;exitDx=0;exitDy=0;" edge="1" parent="NcS81kNCXX5SQqSHhs6a-1" source="NcS81kNCXX5SQqSHhs6a-19" target="NcS81kNCXX5SQqSHhs6a-15">
          <mxGeometry relative="1" as="geometry" />
        </mxCell>
        <mxCell id="NcS81kNCXX5SQqSHhs6a-91" style="edgeStyle=orthogonalEdgeStyle;rounded=1;orthogonalLoop=1;jettySize=auto;html=1;exitX=0;exitY=0.5;exitDx=0;exitDy=0;" edge="1" parent="NcS81kNCXX5SQqSHhs6a-1" source="NcS81kNCXX5SQqSHhs6a-22" target="NcS81kNCXX5SQqSHhs6a-24">
          <mxGeometry relative="1" as="geometry" />
        </mxCell>
        <mxCell id="NcS81kNCXX5SQqSHhs6a-92" style="edgeStyle=orthogonalEdgeStyle;rounded=1;orthogonalLoop=1;jettySize=auto;html=1;exitX=0;exitY=0.5;exitDx=0;exitDy=0;entryX=1;entryY=0.75;entryDx=0;entryDy=0;" edge="1" parent="NcS81kNCXX5SQqSHhs6a-1" source="NcS81kNCXX5SQqSHhs6a-34" target="NcS81kNCXX5SQqSHhs6a-9">
          <mxGeometry relative="1" as="geometry">
            <Array as="points">
              <mxPoint x="180" y="1170" />
              <mxPoint x="180" y="665" />
            </Array>
          </mxGeometry>
        </mxCell>
        <mxCell id="NcS81kNCXX5SQqSHhs6a-94" style="edgeStyle=orthogonalEdgeStyle;rounded=1;orthogonalLoop=1;jettySize=auto;html=1;exitX=0;exitY=0.5;exitDx=0;exitDy=0;entryX=1;entryY=0.5;entryDx=0;entryDy=0;" edge="1" parent="NcS81kNCXX5SQqSHhs6a-1" source="NcS81kNCXX5SQqSHhs6a-39" target="NcS81kNCXX5SQqSHhs6a-41">
          <mxGeometry relative="1" as="geometry">
            <Array as="points">
              <mxPoint x="160" y="1340" />
              <mxPoint x="160" y="1140" />
            </Array>
          </mxGeometry>
        </mxCell>
        <mxCell id="NcS81kNCXX5SQqSHhs6a-102" style="edgeStyle=orthogonalEdgeStyle;rounded=1;orthogonalLoop=1;jettySize=auto;html=1;exitX=0;exitY=0.5;exitDx=0;exitDy=0;" edge="1" parent="NcS81kNCXX5SQqSHhs6a-1" source="NcS81kNCXX5SQqSHhs6a-98" target="NcS81kNCXX5SQqSHhs6a-101">
          <mxGeometry relative="1" as="geometry" />
        </mxCell>
      </root>
    </mxGraphModel>
  </diagram>
</mxfile>
